<mxfile host="app.diagrams.net" modified="2021-06-22T10:48:48.803Z" agent="5.0 (Macintosh; Intel Mac OS X 10_15_7) AppleWebKit/537.36 (KHTML, like Gecko) Chrome/89.0.4389.90 Safari/537.36" etag="kNbOjXCkDaZsGCYAKfpc" version="14.8.0" type="github">
  <diagram id="hpWlZ2mse7pLBrY-4Rhp" name="Page-1">
    <mxGraphModel dx="2063" dy="1832" grid="1" gridSize="10" guides="1" tooltips="1" connect="1" arrows="1" fold="1" page="1" pageScale="1" pageWidth="850" pageHeight="1100" math="0" shadow="0">
      <root>
        <mxCell id="0" />
        <mxCell id="1" parent="0" />
        <mxCell id="3sqTMt2oUwZPbdSLeGCI-1" value="Map parsing ?" style="rounded=0;whiteSpace=wrap;html=1;" vertex="1" parent="1">
          <mxGeometry x="-35" y="130" width="120" height="60" as="geometry" />
        </mxCell>
        <mxCell id="3sqTMt2oUwZPbdSLeGCI-3" value="Bonus" style="rounded=0;whiteSpace=wrap;html=1;" vertex="1" parent="1">
          <mxGeometry x="530" y="70" width="120" height="60" as="geometry" />
        </mxCell>
        <mxCell id="3sqTMt2oUwZPbdSLeGCI-8" value="enemy patrols" style="rounded=0;whiteSpace=wrap;html=1;" vertex="1" parent="1">
          <mxGeometry x="710" y="20" width="120" height="60" as="geometry" />
        </mxCell>
        <mxCell id="3sqTMt2oUwZPbdSLeGCI-9" value="sprite animation" style="rounded=0;whiteSpace=wrap;html=1;" vertex="1" parent="1">
          <mxGeometry x="710" y="100" width="120" height="60" as="geometry" />
        </mxCell>
        <mxCell id="3sqTMt2oUwZPbdSLeGCI-10" value="Movement count on the screen" style="rounded=0;whiteSpace=wrap;html=1;" vertex="1" parent="1">
          <mxGeometry x="710" y="180" width="120" height="60" as="geometry" />
        </mxCell>
        <mxCell id="3sqTMt2oUwZPbdSLeGCI-11" value="&lt;font style=&quot;font-size: 30px&quot;&gt;So long&lt;/font&gt;" style="text;html=1;strokeColor=none;fillColor=none;align=center;verticalAlign=middle;whiteSpace=wrap;rounded=0;" vertex="1" parent="1">
          <mxGeometry x="-100" y="-30" width="250" height="160" as="geometry" />
        </mxCell>
        <mxCell id="3sqTMt2oUwZPbdSLeGCI-12" value="mlx library" style="rounded=0;whiteSpace=wrap;html=1;" vertex="1" parent="1">
          <mxGeometry x="150" y="20" width="120" height="60" as="geometry" />
        </mxCell>
      </root>
    </mxGraphModel>
  </diagram>
</mxfile>
